PathFileType	4	(x/y/z)	S09_PSF_T11
DataRate	CameraRate	NumFrames	NumMarkers	Units	OrigDataRate	OrigDataStartFrame	OrigNumFrames
240	240	10	51	mm	240	115	458
Frame#	Time	Sternum			R.Acromium			L.Acromium			Top.Head			R.ASIS			L.ASIS			R.PSIS			L.PSIS			R.Great.Tro			L.Great.Tro			R.Iliac.Crest			L.Iliac.Crest			V.Sacral			R.Thigh.Upper.Post			R.Thigh.Lower.Ant			R.Thigh.Lower.Post			R.Thigh.Upper.Ant			R.Knee.Lat			R.Knee.Med			R.Shank.Upper.Post			R.Shank.Lower.Ant			R.Shank.Lower.Post			R.Shank.Upper.Ant			R.Ankle.Lat			R.Ankle.Med			R.Heel.Upper			R.Heel.Med			R.Heel.Lat			R.Toe.Lat			R.Toe.Med			R.Toe.Tip			L.Thigh.Upper.Post			L.Thigh.Lower.Ant			L.Thigh.Lower.Post			L.Thigh.Upper.Ant			L.Knee.Lat			L.Knee.Med			L.Shank.Upper.Post			L.Shank.Lower.Ant			L.Shank.Lower.Post			L.Shank.Upper.Ant			L.Ankle.Lat			L.Ankle.Med			L.Heel.Upper			L.Heel.Med			L.Heel.Lat			L.Toe.Lat			L.Toe.Med			L.Toe.Tip			Cervical.Spine			Back			
		X1	Y1	Z1	X2	Y2	Z2	X3	Y3	Z3	X4	Y4	Z4	X5	Y5	Z5	X6	Y6	Z6	X7	Y7	Z7	X8	Y8	Z8	X9	Y9	Z9	X10	Y10	Z10	X11	Y11	Z11	X12	Y12	Z12	X13	Y13	Z13	X14	Y14	Z14	X15	Y15	Z15	X16	Y16	Z16	X17	Y17	Z17	X18	Y18	Z18	X19	Y19	Z19	X20	Y20	Z20	X21	Y21	Z21	X22	Y22	Z22	X23	Y23	Z23	X24	Y24	Z24	X25	Y25	Z25	X26	Y26	Z26	X27	Y27	Z27	X28	Y28	Z28	X29	Y29	Z29	X30	Y30	Z30	X31	Y31	Z31	X32	Y32	Z32	X33	Y33	Z33	X34	Y34	Z34	X35	Y35	Z35	X36	Y36	Z36	X37	Y37	Z37	X38	Y38	Z38	X39	Y39	Z39	X40	Y40	Z40	X41	Y41	Z41	X42	Y42	Z42	X43	Y43	Z43	X44	Y44	Z44	X45	Y45	Z45	X46	Y46	Z46	X47	Y47	Z47	X48	Y48	Z48	X49	Y49	Z49	X50	Y50	Z50	X51	Y51	Z51	

115	0.475	NaN	NaN	NaN	-1115.2	1422.2	472	-1110.7	1428.5	159.05	-1099.1	1734.3	317.75	-1007.3	1018.9	421.64	NaN	NaN	NaN	NaN	NaN	NaN	NaN	NaN	NaN	-1075.4	924.13	497.35	-1103.8	931.36	112.54	-1100.3	1088.7	471.4	-1136.4	1113.3	149.77	-1253.2	997.84	309.38	-996.95	685.22	485.02	-895.16	613.19	446.68	-971.7	596.48	461.62	-926.68	696.02	470.73	-892.88	539.33	445.96	-891.6	524.67	317.88	-897.45	355.52	453.32	-810.69	327.17	454.87	-867.32	284.9	447.68	-844.53	393.03	462.21	-756.45	119.76	444	-716.05	147.28	356.67	-796.56	72.676	382.79	-765.96	54.045	355.75	-782.11	44.416	417.75	-644.59	105.11	493.46	-594.76	144.99	399.97	-569.51	177.56	450.67	-1200.5	686.45	181.9	-1132.6	578.48	182.76	-1199.6	599.14	203.8	-1134.4	664.97	156.28	-1162	502.42	199.2	-1130	518.1	329.01	-1237.1	379.97	197.97	-1194.6	279.43	216.55	-1249.1	307.21	208.12	-1178.7	354.95	203.68	-1278.8	109.06	250.04	-1262.2	105.37	343.17	-1354.5	76.802	306	-1343.8	51.941	336.27	-1355.6	50.416	275.84	-1184.5	42.717	216.51	-1144.2	38.707	324.08	-1094.2	52.85	263.54	-1199.3	1475.9	325.75	-1241	1208.7	303.53
116	0.47917	NaN	NaN	NaN	-1110	1421.4	472.12	-1105.4	1427.7	159.16	-1094	1733.6	317.81	-1001.8	1018.1	421.62	NaN	NaN	NaN	NaN	NaN	NaN	NaN	NaN	NaN	-1070	923.2	497.41	-1099.3	930.83	112.59	-1094.8	1087.8	471.54	-1131.6	1112.6	150.07	-1248	997.03	309.85	-992.46	683.96	484.84	-891.02	611.5	446.37	-967.66	595.14	461.24	-922.12	694.39	470.51	-888.67	538.34	445.56	-888.33	523.39	316.92	-890.19	354.61	452.89	-802.89	327.69	454.06	-858.89	284.42	447.19	-837.87	392.98	461.41	-745.04	120.83	442.88	-705.32	148.99	355.43	-784.71	73.03	381.86	-753.87	54.985	354.64	-769.53	44.948	416.7	-632.57	108.04	491.76	-584.01	149.03	398.08	-559.07	182.04	448.67	-1197.1	686.57	182.55	-1129.8	578.18	182.71	-1196.9	599.31	204.23	-1131.2	664.71	156.41	-1159.4	502.21	199.18	-1126.6	517.52	328.79	-1235	380.16	197.97	-1193.2	279.31	216.5	-1247.5	307.52	208.11	-1176.8	354.78	203.57	-1278.5	109.4	250.14	-1261.8	105.64	343.25	-1354.4	77.072	306.13	-1343.7	52.172	336.37	-1355.5	50.707	275.95	-1184.5	42.707	216.55	-1144.1	38.562	324.07	-1094	52.498	263.52	-1193.9	1475.2	325.88	-1235.9	1208	303.75
117	0.48333	NaN	NaN	NaN	-1104.7	1420.6	472.24	-1100.1	1426.8	159.27	-1088.9	1732.9	317.88	-996.34	1017.2	421.59	NaN	NaN	NaN	NaN	NaN	NaN	NaN	NaN	NaN	-1064.5	922.31	497.5	-1094.7	930.28	112.64	-1089.2	1086.9	471.67	-1126.9	1111.9	150.36	-1242.7	996.23	310.33	-987.86	682.76	484.67	-886.75	609.93	446.06	-963.48	593.89	460.87	-917.46	692.87	470.32	-884.32	537.43	445.16	-884.91	522.2	316.02	-883.08	353.76	452.47	-795.33	328.15	453.22	-850.74	283.99	446.68	-831.31	392.91	460.6	-734.22	121.83	441.69	-695.15	150.6	354.13	-773.5	73.391	380.85	-742.46	55.901	353.44	-757.65	45.466	415.57	-621.19	110.73	489.99	-573.87	152.76	396.13	-549.19	186.14	446.6	-1193.6	686.67	183.19	-1126.9	577.86	182.67	-1194.1	599.45	204.64	-1128	664.43	156.56	-1156.7	501.97	199.18	-1123.1	516.92	328.6	-1232.8	380.35	197.98	-1191.7	279.19	216.47	-1245.8	307.83	208.13	-1174.8	354.61	203.48	-1278.1	109.76	250.24	-1261.4	105.93	343.33	-1354.2	77.382	306.25	-1343.6	52.445	336.47	-1355.3	51.036	276.07	-1184.4	42.697	216.59	-1144	38.426	324.06	-1093.8	52.141	263.49	-1188.6	1474.5	326.02	-1230.8	1207.2	303.99
118	0.4875	NaN	NaN	NaN	-1099.4	1419.8	472.39	-1094.7	1425.9	159.39	-1083.8	1732.1	317.96	-990.82	1016.3	421.56	NaN	NaN	NaN	NaN	NaN	NaN	NaN	NaN	NaN	-1059	921.46	497.61	-1090.2	929.71	112.69	-1083.7	1086.1	471.8	-1122	1111.2	150.63	-1237.4	995.43	310.82	-983.14	681.65	484.5	-882.34	608.49	445.74	-959.14	592.73	460.51	-912.69	691.46	470.14	-879.8	536.6	444.74	-881.34	521.09	315.17	-876.12	352.98	452.05	-787.98	328.53	452.33	-842.88	283.6	446.16	-824.84	392.8	459.79	-724	122.72	440.45	-685.57	152.08	352.77	-762.96	73.725	379.77	-731.75	56.758	352.15	-746.47	45.935	414.36	-610.47	113.12	488.15	-564.34	156.14	394.13	-539.87	189.81	444.5	-1190	686.72	183.82	-1123.9	577.52	182.65	-1191.2	599.54	205.05	-1124.7	664.13	156.71	-1153.9	501.71	199.21	-1119.6	516.31	328.44	-1230.6	380.55	198	-1190.2	279.07	216.46	-1244.1	308.14	208.17	-1172.7	354.43	203.41	-1277.7	110.15	250.34	-1261	106.24	343.4	-1354	77.737	306.37	-1343.5	52.765	336.57	-1355.2	51.409	276.18	-1184.3	42.687	216.63	-1143.8	38.297	324.05	-1093.6	51.778	263.46	-1183.2	1473.7	326.17	-1225.6	1206.5	304.24
119	0.49167	NaN	NaN	NaN	-1094.2	1419.1	472.54	-1089.4	1425.1	159.52	-1078.7	1731.4	318.04	-985.29	1015.5	421.53	NaN	NaN	NaN	NaN	NaN	NaN	NaN	NaN	NaN	-1053.4	920.67	497.74	-1085.7	929.12	112.74	-1078	1085.3	471.93	-1117.2	1110.5	150.9	-1232.1	994.65	311.32	-978.31	680.61	484.33	-877.77	607.19	445.41	-954.63	591.67	460.15	-907.82	690.19	469.96	-875.12	535.85	444.3	-877.58	520.07	314.37	-869.32	352.26	451.62	-780.87	328.82	451.41	-835.3	283.22	445.62	-818.48	392.66	458.97	-714.39	123.47	439.16	-676.58	153.38	351.35	-753.09	74.006	378.62	-721.76	57.524	350.8	-736.02	46.324	413.06	-600.41	115.19	486.25	-555.44	159.12	392.08	-531.12	193.03	442.37	-1186.4	686.74	184.43	-1120.8	577.15	182.66	-1188.2	599.59	205.44	-1121.3	663.8	156.87	-1151	501.43	199.26	-1116	515.68	328.3	-1228.2	380.75	198.05	-1188.6	278.95	216.47	-1242.3	308.44	208.25	-1170.5	354.26	203.36	-1277.3	110.57	250.44	-1260.6	106.57	343.48	-1353.8	78.145	306.48	-1343.4	53.137	336.67	-1355.1	51.831	276.29	-1184.2	42.676	216.68	-1143.7	38.177	324.03	-1093.4	51.408	263.43	-1177.7	1473	326.33	-1220.5	1205.7	304.5
120	0.49583	NaN	NaN	NaN	-1088.9	1418.3	472.7	-1084.1	1424.2	159.66	-1073.5	1730.7	318.12	-979.75	1014.7	421.48	NaN	NaN	NaN	NaN	NaN	NaN	NaN	NaN	NaN	-1047.8	919.93	497.9	-1081.2	928.5	112.81	-1072.4	1084.5	472.05	-1112.4	1109.8	151.15	-1226.7	993.88	311.83	-973.34	679.66	484.16	-873.03	606.05	445.07	-949.94	590.71	459.81	-902.83	689.05	469.79	-870.26	535.17	443.85	-873.6	519.14	313.62	-862.68	351.58	451.17	-773.98	328.99	450.45	-828.03	282.85	445.04	-812.22	392.46	458.14	-705.41	124.05	437.81	-668.2	154.49	349.89	-743.92	74.206	377.41	-712.51	58.167	349.38	-726.32	46.606	411.7	-591.03	116.9	484.3	-547.15	161.68	390	-522.93	195.77	440.2	-1182.7	686.71	185.02	-1117.6	576.76	182.68	-1185.2	599.59	205.83	-1117.8	663.44	157.04	-1148.1	501.13	199.34	-1112.4	515.04	328.21	-1225.8	380.95	198.11	-1187	278.84	216.49	-1240.5	308.75	208.37	-1168.2	354.08	203.33	-1276.9	111.03	250.54	-1260.1	106.94	343.55	-1353.6	78.612	306.59	-1343.2	53.566	336.77	-1355	52.308	276.41	-1184.1	42.666	216.72	-1143.5	38.065	324.01	-1093.2	51.031	263.39	-1172.3	1472.3	326.5	-1215.3	1204.9	304.77
121	0.5	NaN	NaN	NaN	-1083.6	1417.5	472.87	-1078.7	1423.4	159.81	-1068.4	1730.1	318.22	-974.2	1013.9	421.44	NaN	NaN	NaN	NaN	NaN	NaN	NaN	NaN	NaN	-1042.1	919.25	498.07	-1076.6	927.85	112.88	-1066.7	1083.8	472.16	-1107.5	1109	151.39	-1221.4	993.13	312.35	-968.24	678.79	483.99	-868.13	605.05	444.71	-945.06	589.85	459.47	-897.71	688.06	469.61	-865.22	534.56	443.37	-869.4	518.3	312.91	-856.21	350.95	450.69	-767.33	329.05	449.46	-821.07	282.48	444.43	-806.06	392.21	457.3	-697.06	124.45	436.42	-660.42	155.38	348.38	-735.46	74.305	376.15	-704.01	58.663	347.91	-717.37	46.758	410.28	-582.32	118.24	482.32	-539.46	163.79	387.89	-515.3	197.99	438.02	-1178.9	686.64	185.59	-1114.3	576.34	182.73	-1182	599.54	206.21	-1114.2	663.06	157.22	-1145	500.81	199.44	-1108.7	514.39	328.15	-1223.4	381.15	198.2	-1185.3	278.73	216.54	-1238.6	309.05	208.52	-1165.9	353.9	203.33	-1276.5	111.52	250.64	-1259.6	107.32	343.63	-1353.4	79.143	306.69	-1343.1	54.059	336.87	-1354.8	52.845	276.52	-1184	42.658	216.77	-1143.4	37.962	323.99	-1093	50.648	263.35	-1166.9	1471.6	326.68	-1210	1204.2	305.06
122	0.50417	NaN	NaN	NaN	-1078.3	1416.8	473.05	-1073.4	1422.6	159.97	-1063.2	1729.4	318.32	-968.64	1013.1	421.4	NaN	NaN	NaN	NaN	NaN	NaN	NaN	NaN	NaN	-1036.5	918.64	498.26	-1072	927.17	112.96	-1061.1	1083.2	472.28	-1102.6	1108.3	151.62	-1216	992.4	312.88	-963	678.01	483.83	-863.06	604.21	444.33	-940	589.1	459.14	-892.48	687.2	469.42	-860.01	534.02	442.87	-864.94	517.55	312.26	-849.91	350.36	450.18	-760.91	328.98	448.43	-814.41	282.09	443.76	-799.99	391.89	456.44	-689.35	124.65	434.99	-653.26	156.03	346.83	-727.7	74.284	374.84	-696.25	58.989	346.39	-709.18	46.764	408.81	-574.28	119.18	480.3	-532.38	165.42	385.75	-508.21	199.68	435.83	-1175	686.52	186.13	-1110.9	575.9	182.81	-1178.6	599.43	206.58	-1110.5	662.65	157.42	-1141.8	500.46	199.57	-1104.9	513.73	328.12	-1220.8	381.36	198.3	-1183.5	278.63	216.61	-1236.7	309.37	208.71	-1163.5	353.71	203.36	-1276	112.06	250.74	-1259.1	107.74	343.71	-1353.1	79.747	306.78	-1342.9	54.619	336.97	-1354.7	53.446	276.64	-1183.9	42.651	216.81	-1143.2	37.869	323.97	-1092.7	50.259	263.31	-1161.4	1470.9	326.86	-1204.8	1203.4	305.35
123	0.50833	NaN	NaN	NaN	-1073	1416.1	473.24	-1068	1421.7	160.13	-1058	1728.7	318.42	-963.06	1012.4	421.35	NaN	NaN	NaN	NaN	NaN	NaN	NaN	NaN	NaN	-1030.7	918.08	498.46	-1067.4	926.47	113.05	-1055.4	1082.6	472.39	-1097.7	1107.5	151.84	-1210.6	991.7	313.41	-957.62	677.31	483.66	-857.81	603.51	443.93	-934.75	588.44	458.81	-887.12	686.48	469.22	-854.63	533.55	442.35	-860.24	516.9	311.64	-843.79	349.79	449.62	-754.71	328.77	447.36	-808.07	281.67	443.05	-794.03	391.5	455.56	-682.26	124.64	433.54	-646.7	156.42	345.26	-720.66	74.133	373.5	-689.23	59.131	344.85	-701.75	46.611	407.31	-566.9	119.71	478.26	-525.89	166.56	383.6	-501.65	200.83	433.62	-1171	686.35	186.65	-1107.4	575.43	182.91	-1175.2	599.28	206.94	-1106.7	662.21	157.62	-1138.5	500.09	199.72	-1101	513.07	328.14	-1218.2	381.58	198.43	-1181.7	278.53	216.7	-1234.7	309.69	208.93	-1161.1	353.52	203.41	-1275.5	112.63	250.85	-1258.5	108.19	343.78	-1352.8	80.428	306.87	-1342.7	55.252	337.07	-1354.5	54.117	276.75	-1183.8	42.647	216.86	-1143	37.787	323.95	-1092.5	49.864	263.27	-1155.9	1470.2	327.06	-1199.5	1202.7	305.66
124	0.5125	NaN	NaN	NaN	-1067.7	1415.4	473.44	-1062.7	1421	160.31	-1052.8	1728.1	318.53	-957.47	1011.8	421.3	NaN	NaN	NaN	NaN	NaN	NaN	NaN	NaN	NaN	-1024.9	917.58	498.68	-1062.7	925.75	113.17	-1049.7	1082	472.51	-1092.8	1106.8	152.04	-1205.1	991.01	313.95	-952.1	676.69	483.5	-852.39	602.95	443.5	-929.31	587.88	458.49	-881.63	685.9	469	-849.08	533.12	441.8	-855.28	516.36	311.06	-837.84	349.25	449.02	-748.74	328.42	446.27	-802.04	281.22	442.29	-788.17	391.04	454.66	-675.8	124.4	432.05	-640.74	156.53	343.66	-714.31	73.843	372.14	-682.96	59.076	343.29	-695.08	46.295	405.79	-560.18	119.83	476.21	-519.97	167.21	381.45	-495.6	201.44	431.4	-1167	686.14	187.15	-1103.8	574.94	183.04	-1171.6	599.08	207.31	-1102.9	661.74	157.83	-1135.1	499.7	199.9	-1097.1	512.4	328.2	-1215.5	381.81	198.58	-1179.7	278.44	216.81	-1232.7	310.02	209.18	-1158.5	353.33	203.49	-1275	113.26	250.95	-1257.9	108.68	343.86	-1352.5	81.192	306.94	-1342.5	55.963	337.17	-1354.3	54.863	276.85	-1183.6	42.646	216.91	-1142.8	37.717	323.93	-1092.3	49.467	263.22	-1150.3	1469.5	327.26	-1194.1	1201.9	305.96
